<svg xmlns="http://www.w3.org/2000/svg" viewBox="0 0 612.16 612">
  <path style="fill:#fefefe" d="M532.71,128.45,343.06,16.14a70.41,70.41,0,0,0-72.63,0L80.77,128.45a75.66,75.66,0,0,0-37,65.24V418.31A75.88,75.88,0,0,0,80.1,483.55L269.75,595.86a70.43,70.43,0,0,0,72.64,0L532,483.55a73.64,73.64,0,0,0,36.32-65.24V193.69C569,166.79,554.91,142.58,532.71,128.45Z" />
  <path style="fill:#007acc" d="M276.48,589.13,84.14,474.8c-18.83-11.43-30.94-32.28-30.27-54.47V191.67A63.75,63.75,0,0,1,84.14,137.2L276.48,22.87a60.79,60.79,0,0,1,60.53,0L529.35,137.2a60.85,60.85,0,0,1,29.59,44.38c-6.72-13.45-20.85-17.48-37.66-7.4L339.7,286.5C316.83,300,300,314.74,300,342.32V566.94c0,16.14,6.72,26.9,16.81,30.26a60.41,60.41,0,0,1-40.35-8.07m259.6-463.37L343.73,11.43a72.86,72.86,0,0,0-74,0L77.41,125.76a76.76,76.76,0,0,0-37.66,65.91V420.33c0,26.9,14.12,52.46,37,65.91L269.08,600.57a72.86,72.86,0,0,0,74,0L535.4,486.24a77.61,77.61,0,0,0,37-65.91V191.67a74.73,74.73,0,0,0-36.31-65.91" />
  <path style="fill:#fefefe" d="M485.64,442.52l-47.75,28.25a3.69,3.69,0,0,0-2,3.36v12.78c0,1.34,1.34,2,2,1.34l48.42-29.59c1.34-.67,2-2,1.34-4V443.87c.68-1.35-.67-2-2-1.35" />
  <path style="fill:#fefefe" d="M384.08,336.94c1.35-.68,2.69,0,2.69,2v16.82a28.47,28.47,0,0,1,18.16-2c1.35,0,1.35,2,1.35,4l-3.37,14.8a3.49,3.49,0,0,1-1.34,2.69l-.67.67h-1.35c-6.05-1.34-12.1,0-17.48,2.69-8.07,3.37-13.45,11.44-13.45,19.51,0,7.39,4,10.08,17.48,10.08,18.16,0,25.56,8.07,25.56,26.23-.67,18.83-8.75,36.32-23.54,48.42V499c0,2-1.35,4-2.69,5.38l-10.09,5.38c-1.34.67-2.69,0-2.69-2V491a31.55,31.55,0,0,1-22.19,2c-1.35-.67-1.35-2-1.35-3.36l3.37-14.8c0-1.34.67-2,2-3.36l.68-.67h1.34c6.73,2,14.12.67,20.18-2.69a26,26,0,0,0,14.79-22.87c0-8.07-4.71-12.1-15.47-12.1-14.12,0-26.9-2.69-26.9-23.54,0-18.16,8.75-34.3,22.87-45.73V347c0-2,1.34-4,2.69-5.38Z" />
</svg>
